# xmcd
#
# Track frame offsets: 
#        150
#        8345
#        17052
#        30105
#        40800
#        53370
#        69697
#        86847
#        106635
#        129185
#
# Disc length: 1978 seconds
#
# Revision: 2
# Processed by: cddbd v1.5.2PL0 Copyright (c) Steve Scherf et al.
# Submitted via: ExactAudioCopy v0.99pb4
#
DISCID=6107b80a
DTITLE=Etta James and Billie Holiday - Back To Back
DYEAR=1998
DGENRE=Blues
TTITLE0=Billie Holiday - Miss Brown To You
TTITLE1=Billie Holiday - Moanin' Low
TTITLE2=Billie Holiday - My Man
TTITLE3=Billie Holiday - No Detour Ahead
TTITLE4=Billie Holiday - Prelude To A Kiss
TTITLE5=Etta James - I'd Rather Go Blind
TTITLE6=Etta James - Dust My Broom
TTITLE7=Etta James - Drown In My Own Tears
TTITLE8=Etta James - Stormy Monday
TTITLE9=Etta James - Baby What You Want Me To Do
EXTD=
EXTT0=
EXTT1=
EXTT2=
EXTT3=
EXTT4=
EXTT5=
EXTT6=
EXTT7=
EXTT8=
EXTT9=
PLAYORDER=
